# xmcd CD database file
#
# Track frame offsets:
#	150
#	40326
#	75856
#	133116
#	174038
#	210233
#	229441
#
# Disc length: 4121 seconds
#
# Revision: 0
# Processed by: cddbd v1.5.2PL0 Copyright (c) Steve Scherf et al.
# Submitted via: CDex 1.51
#
DISCID=4c101707
DTITLE=Branford Marsalis - Eternal
DYEAR=2004
DGENRE=Jazz
TTITLE0=The Ruby And The Pearl
TTITLE1=Reika's Loss
TTITLE2=Gloomy Sunday
TTITLE3=The Lonely Swan
TTITLE4=Dinner For One Please, James
TTITLE5=Muldoon
TTITLE6=Eternal
EXTD=YEAR: 2004
EXTT0=
EXTT1=
EXTT2=
EXTT3=
EXTT4=
EXTT5=
EXTT6=
PLAYORDER=
